HIERARCHY
ROOT SpineBase
{
  OFFSET 0.000000 0.000000 0.000000
  CHANNELS 6 Xposition Yposition Zposition Zrotation Xrotation Yrotation
  JOINT SpineMid
  {
    OFFSET 0.000000 29.173991 0.000000
    CHANNELS 3 Zrotation Xrotation Yrotation
    JOINT SpineShoulder
    {
      OFFSET -0.054971 21.691431 -0.695472
      CHANNELS 3 Zrotation Xrotation Yrotation
      JOINT Neck
      {
        OFFSET -0.092347 7.212026 -0.532995
        CHANNELS 3 Zrotation Xrotation Yrotation
        JOINT Head
        {
          OFFSET 8.349419 9.865770 -1.311972
          CHANNELS 3 Zrotation Xrotation Yrotation
          End Site
          {
            OFFSET 0 0 0
          }
        }
      }
      JOINT ShoulderLeft
      {
        OFFSET -9.944234 -2.038121 -10.820450
        CHANNELS 3 Zrotation Xrotation Yrotation
        JOINT ElbowLeft
        {
          OFFSET -4.094465 -22.376999 -5.087298
          CHANNELS 3 Zrotation Xrotation Yrotation
          JOINT WristLeft
          {
            OFFSET 2.480003 -19.683877 -2.751263
            CHANNELS 3 Zrotation Xrotation Yrotation
            JOINT HandLeft
            {
              OFFSET 0.283007 -8.456434 -0.364519
              CHANNELS 3 Zrotation Xrotation Yrotation
              JOINT HandTipLeft
              {
                OFFSET 0.526053 -6.365414 -0.616308
                CHANNELS 3 Zrotation Xrotation Yrotation
                End Site
                {
                  OFFSET 0 0 0
                }
              }
              JOINT ThumbLeft
              {
                OFFSET -4.193404 0.377822 -0.280127
                CHANNELS 3 Zrotation Xrotation Yrotation
                End Site
                {
                  OFFSET 0 0 0
                }
              }
            }
          }
        }
      }
      JOINT ShoulderRight
      {
        OFFSET 10.398503 -7.161122 8.096192
        CHANNELS 3 Zrotation Xrotation Yrotation
        JOINT ElbowRight
        {
          OFFSET 5.829110 -18.401567 12.755238
          CHANNELS 3 Zrotation Xrotation Yrotation
          JOINT WristRight
          {
            OFFSET 0.238293 21.385508 -5.301731
            CHANNELS 3 Zrotation Xrotation Yrotation
            JOINT HandRight
            {
              OFFSET 3.616677 2.972187 -4.321642
              CHANNELS 3 Zrotation Xrotation Yrotation
              JOINT HandTipRight
              {
                OFFSET -0.254945 -0.213180 -1.651182
                CHANNELS 3 Zrotation Xrotation Yrotation
                End Site
                {
                  OFFSET 0 0 0
                }
              }
              JOINT ThumbRight
              {
                OFFSET -0.132977 -0.535163 -3.125208
                CHANNELS 3 Zrotation Xrotation Yrotation
                End Site
                {
                  OFFSET 0 0 0
                }
              }
            }
          }
        }
      }
    }
  }
  JOINT HipLeft
  {
    OFFSET -5.233396 2.323201 -7.115280
    CHANNELS 3 Zrotation Xrotation Yrotation
    JOINT KneeLeft
    {
      OFFSET -8.363690 -29.867876 -0.448173
      CHANNELS 3 Zrotation Xrotation Yrotation
      JOINT AnkleLeft
      {
        OFFSET -8.476966 -32.000049 1.676293
        CHANNELS 3 Zrotation Xrotation Yrotation
        JOINT FootLeft
        {
          OFFSET 2.192723 -6.663747 -2.551544
          CHANNELS 3 Zrotation Xrotation Yrotation
          End Site
          {
            OFFSET 0 0 0
          }
        }
      }
    }
  }
  JOINT HipRight
  {
    OFFSET 4.333160 0.086771 1.182942
    CHANNELS 3 Zrotation Xrotation Yrotation
    JOINT KneeRight
    {
      OFFSET 1.414377 -32.173878 12.591403
      CHANNELS 3 Zrotation Xrotation Yrotation
      JOINT AnkleRight
      {
        OFFSET -7.314324 -27.621435 8.043058
        CHANNELS 3 Zrotation Xrotation Yrotation
        JOINT FootRight
        {
          OFFSET 5.168386 -4.771659 -0.577174
          CHANNELS 3 Zrotation Xrotation Yrotation
          End Site
          {
            OFFSET 0 0 0
          }
        }
      }
    }
  }
}
MOTION
Frames: 14
Frame Time: 0.033333
40.076174 67.703428 272.153705 -0.000000 0.000000 -40.939021 -0.000000 0.000000 40.939021 -0.000000 0.000000 0.000000 -0.000000 0.000000 0.000000 0.000000 0.000000 0.000000 -0.000000 0.000000 0.000000 -0.000000 0.000000 0.000000 -0.000000 0.000000 0.000000 -0.000000 0.000000 0.000000 0.000000 0.000000 0.000000 0.000000 0.000000 0.000000 -0.000000 0.000000 0.000000 -0.000000 0.000000 0.000000 -0.000000 0.000000 0.000000 -0.000000 0.000000 0.000000 0.000000 0.000000 0.000000 0.000000 0.000000 0.000000 -0.000000 0.000000 40.939021 -0.000000 0.000000 0.000000 -0.000000 0.000000 0.000000 0.000000 0.000000 0.000000 -0.000000 0.000000 40.939021 -0.000000 0.000000 0.000000 -0.000000 0.000000 0.000000 0.000000 0.000000 0.000000
40.180228 67.727967 272.125196 0.141640 0.061038 -41.134168 -0.066527 -0.139146 41.134012 -0.000000 0.000000 0.000000 -0.000000 0.000000 0.000000 0.000000 0.000000 0.000000 -0.000000 0.000000 0.000000 -0.000000 0.000000 0.000000 -0.000000 0.000000 0.000000 0.933701 -0.632698 -0.137518 0.000000 0.000000 0.000000 0.000000 0.000000 0.000000 -0.000000 0.000000 0.000000 -0.000000 0.000000 0.000000 0.563219 -1.544054 2.668696 -0.824955 3.770396 -1.981346 0.000000 0.000000 0.000000 0.000000 0.000000 0.000000 -0.066527 -0.139146 41.134012 -0.000000 0.000000 0.000000 -0.000000 0.000000 0.000000 0.000000 0.000000 0.000000 -0.066527 -0.139146 41.134012 -0.000000 0.000000 0.000000 -0.884104 -0.411764 -0.345270 0.000000 0.000000 0.000000
40.246404 67.747774 272.102797 0.225543 0.098451 -41.310406 -0.104425 -0.222841 41.310009 -0.000000 0.000000 0.000000 -0.000000 0.000000 0.000000 0.000000 0.000000 0.000000 -0.000000 0.000000 0.000000 -0.000000 0.000000 0.000000 -0.000000 0.000000 0.000000 1.752211 -1.174849 -0.248726 0.000000 0.000000 0.000000 0.000000 0.000000 0.000000 -0.000000 0.000000 0.000000 -0.000000 0.000000 0.000000 1.189265 -3.039637 5.318529 -1.350759 7.177586 -4.024908 0.000000 0.000000 0.000000 0.000000 0.000000 0.000000 -0.104425 -0.222841 41.310009 -0.000000 0.000000 0.000000 0.748667 -0.305179 -0.384659 0.000000 0.000000 0.000000 -0.104425 -0.222841 41.310009 -0.000000 0.000000 0.000000 -1.582772 -0.734400 -0.623966 0.000000 0.000000 0.000000
40.274703 67.762848 272.086510 0.251574 0.112184 -41.468866 -0.114220 -0.250656 41.468370 -0.000000 0.000000 0.000000 -0.000000 0.000000 0.000000 0.000000 0.000000 0.000000 -0.000000 0.000000 0.000000 -0.000000 0.000000 0.000000 -0.000000 0.000000 0.000000 2.458118 -1.627200 -0.337471 0.000000 0.000000 0.000000 0.000000 0.000000 0.000000 -0.000000 0.000000 0.000000 -0.000000 0.000000 0.000000 1.866462 -4.467658 7.920770 -1.623652 10.205786 -6.121690 0.000000 0.000000 0.000000 0.000000 0.000000 0.000000 -0.114220 -0.250656 41.468370 -0.000000 0.000000 0.000000 1.127383 -0.243939 -0.508322 0.000000 0.000000 0.000000 -0.114220 -0.250656 41.468370 -0.000000 0.000000 0.000000 -2.090709 -0.968709 -0.831299 0.000000 0.000000 0.000000
40.265126 67.773189 272.076333 0.219633 0.102194 -41.610358 -0.096352 -0.222258 41.609976 -0.000000 0.000000 0.000000 -0.000000 0.000000 0.000000 0.000000 0.000000 0.000000 -0.000000 0.000000 0.000000 -0.000000 0.000000 0.000000 -0.000000 0.000000 0.000000 3.053868 -1.990697 -0.406998 0.000000 0.000000 0.000000 0.000000 0.000000 0.000000 -0.000000 0.000000 0.000000 -0.000000 0.000000 0.000000 2.580573 -5.811655 10.446699 -1.691576 12.842246 -8.253469 0.000000 0.000000 0.000000 0.000000 0.000000 0.000000 -0.096352 -0.222258 41.609976 -0.000000 0.000000 0.000000 1.508296 -0.039922 -0.587698 0.000000 0.000000 0.000000 -0.096352 -0.222258 41.609976 -0.000000 0.000000 0.000000 -2.404276 -1.115494 -0.963845 0.000000 0.000000 0.000000
40.217671 67.778798 272.072267 0.129653 0.068454 -41.735377 -0.051181 -0.137391 41.735238 -0.000000 0.000000 0.000000 -0.000000 0.000000 0.000000 0.000000 0.000000 0.000000 -0.000000 0.000000 0.000000 -0.000000 0.000000 0.000000 -0.000000 0.000000 0.000000 3.541702 -2.266360 -0.459968 0.000000 0.000000 0.000000 0.000000 0.000000 0.000000 -0.000000 0.000000 0.000000 -0.000000 0.000000 0.000000 3.315629 -7.058548 12.868756 -1.604166 15.077068 -10.395332 0.000000 0.000000 0.000000 0.000000 0.000000 0.000000 -0.051181 -0.137391 41.735238 -0.000000 0.000000 0.000000 1.890424 0.306077 -0.624209 0.000000 0.000000 0.000000 -0.051181 -0.137391 41.735238 -0.000000 0.000000 0.000000 -2.521352 -1.175369 -1.019514 0.000000 0.000000 0.000000
40.094698 67.764978 272.081389 -0.070993 0.010922 -41.826765 0.060185 0.039206 41.826751 -0.000000 0.000000 0.000000 -0.000000 0.000000 0.000000 0.000000 0.000000 0.000000 -0.000000 0.000000 0.000000 -0.000000 0.000000 0.000000 -0.000000 0.000000 0.000000 3.711662 -2.410017 -0.480282 0.000000 0.000000 0.000000 0.000000 0.000000 0.000000 -0.000000 0.000000 0.000000 -0.000000 0.000000 0.000000 5.049869 -9.586771 18.068861 -1.090734 18.454147 -15.439284 0.000000 0.000000 0.000000 0.000000 0.000000 0.000000 0.060185 0.039206 41.826751 -0.000000 0.000000 0.000000 2.395005 1.512727 -0.445686 0.000000 0.000000 0.000000 0.060185 0.039206 41.826751 -0.000000 0.000000 0.000000 -1.560932 -0.947425 -0.863901 0.000000 0.000000 0.000000
39.958386 67.759030 272.096171 -0.298382 -0.084267 -41.951051 0.165581 0.262137 41.950453 -0.000000 0.000000 0.000000 0.774138 -0.342206 0.396980 0.000000 0.000000 0.000000 -0.000000 0.000000 0.000000 -0.000000 0.000000 0.000000 -0.602343 0.657716 0.051430 3.858540 -3.263145 -0.463572 0.000000 0.000000 0.000000 0.000000 0.000000 0.000000 -0.000000 0.000000 0.000000 -0.000000 0.000000 0.000000 6.234223 -11.057030 21.318649 -0.638147 20.163537 -18.720469 0.000000 0.000000 0.000000 0.000000 0.000000 0.000000 0.165581 0.262137 41.950453 -0.000000 0.000000 0.000000 2.635464 2.401591 -0.269970 0.000000 0.000000 0.000000 0.165581 0.262137 41.950453 -0.000000 0.000000 0.000000 -0.738511 -0.743161 -0.726047 0.000000 0.000000 0.000000
39.843112 67.761188 272.109711 -0.503006 -0.191016 -42.084784 0.245293 0.478888 42.082920 -0.000000 0.000000 0.000000 0.948320 -0.348690 0.426911 0.000000 0.000000 0.000000 -0.000000 0.000000 0.000000 -0.000000 0.000000 0.000000 -0.762090 0.795285 0.064751 4.527951 -3.127765 -0.482153 0.000000 0.000000 0.000000 0.000000 0.000000 0.000000 -0.000000 0.000000 0.000000 -0.000000 0.000000 0.000000 6.651910 -11.535062 22.419677 -0.482840 20.647262 -19.828421 0.000000 0.000000 0.000000 0.000000 0.000000 0.000000 0.245293 0.478888 42.082920 -0.000000 0.000000 0.000000 2.988072 2.837188 -0.279578 0.000000 0.000000 0.000000 0.956227 0.965626 42.402810 -0.853143 0.120022 -0.327959 -0.769614 -0.631891 -0.600349 0.000000 0.000000 0.000000
39.740972 67.779237 272.119904 -0.690015 -0.306981 -42.258885 0.304278 0.691211 42.255201 -0.627701 -0.696041 -0.059093 1.769111 0.308762 0.526200 0.000000 0.000000 0.000000 0.627029 0.696646 0.051468 -0.000000 0.000000 0.000000 -0.987377 1.028645 0.085844 5.724753 -3.869843 -0.558270 0.000000 0.000000 0.000000 0.000000 0.000000 0.000000 0.627029 0.696646 0.051468 -0.000000 0.000000 0.000000 6.234888 -11.056934 21.319629 -0.676345 19.946909 -18.742134 0.000000 0.000000 0.000000 0.000000 0.000000 0.000000 0.304278 0.691211 42.255201 -0.000000 0.000000 0.000000 3.303671 3.071449 -0.336363 0.000000 0.000000 0.000000 1.275323 1.369730 42.690496 -1.173662 0.159753 -0.451122 -1.597988 -0.715800 -0.601538 0.000000 0.000000 0.000000
39.656599 67.815306 272.124734 -0.847891 -0.427603 -42.425091 0.337461 0.887626 42.419313 -0.824221 -0.869318 -0.078262 2.139914 0.403439 0.627740 0.000000 0.000000 0.000000 0.823128 0.870353 0.065757 -0.000000 0.000000 0.000000 -1.251510 1.246939 0.109290 6.162388 -3.884028 -0.554433 0.000000 0.000000 0.000000 0.000000 0.000000 0.000000 0.823128 0.870353 0.065757 -0.000000 0.000000 0.000000 5.051029 -9.586568 18.070506 -1.131257 18.035300 -15.528160 0.000000 0.000000 0.000000 0.000000 0.000000 0.000000 0.337461 0.887626 42.419313 -0.000000 0.000000 0.000000 3.623896 2.954706 -0.498950 0.000000 0.000000 0.000000 1.557756 1.752853 42.963338 -1.482384 0.198656 -0.569573 -2.900194 -0.748796 -0.493047 0.000000 0.000000 0.000000
39.594905 67.873062 272.123264 -0.951908 -0.543340 -42.690885 0.427790 0.078665 42.661716 -0.446076 -0.281816 -0.068455 2.519798 0.477241 0.759243 0.000000 0.000000 0.000000 1.028714 1.058777 0.080125 -0.000000 0.000000 0.000000 -1.315221 1.330469 0.116482 6.385556 -3.141021 -0.527079 0.000000 0.000000 0.000000 0.000000 0.000000 0.000000 1.028714 1.058777 0.080125 -0.000000 0.000000 0.000000 3.317104 -7.058067 12.870552 -1.612903 14.920709 -10.395440 0.000000 0.000000 0.000000 0.000000 0.000000 0.000000 0.331347 1.044769 42.683350 -0.000000 0.000000 0.000000 4.071433 2.657987 -0.763600 0.000000 0.000000 0.000000 1.764381 2.098181 43.326168 -1.764793 0.217218 -0.678776 -4.062862 -0.777253 -0.393243 0.000000 0.000000 0.000000
39.614927 67.928885 272.115013 -0.964939 -0.659791 -42.826445 0.404499 -0.046865 42.792030 -0.448323 -0.245955 -0.074150 2.837111 0.487016 0.917194 0.000000 0.000000 0.000000 1.146517 1.216820 0.088198 -0.000000 0.000000 0.000000 -1.450966 1.480305 0.130820 6.787626 -3.570673 -0.545843 0.000000 0.000000 0.000000 0.000000 0.000000 0.000000 1.146517 1.216820 0.088198 -0.000000 0.000000 0.000000 1.400191 -3.498507 6.149510 -1.796689 10.798351 -3.736580 0.000000 0.000000 0.000000 0.000000 0.000000 0.000000 0.259281 1.139813 42.818310 -0.000000 0.000000 0.000000 4.650569 2.236756 -1.113181 0.000000 0.000000 0.000000 1.791655 2.247172 43.496236 -1.873216 0.251743 -0.719101 -5.195717 -0.940559 -0.455390 0.000000 0.000000 0.000000
39.642796 67.972443 272.093171 -0.960876 -0.796774 -42.856982 0.367291 -0.208468 42.816958 -0.440600 -0.198678 -0.079823 3.166188 0.645905 0.966876 0.000000 0.000000 0.000000 1.048226 0.485256 0.318905 -0.200486 0.166999 -0.251364 -1.064318 2.197249 0.182987 6.251384 -3.427787 -0.514286 0.000000 0.000000 0.000000 0.000000 0.000000 0.000000 1.271529 1.400244 0.096439 -0.000000 0.000000 0.000000 -0.268976 0.833685 -1.414473 -1.414385 6.114497 3.831021 0.000000 0.000000 0.000000 0.000000 0.000000 0.000000 0.162530 1.237602 42.848545 -0.000000 0.000000 0.000000 5.048568 1.842862 -1.380548 0.000000 0.000000 0.000000 1.813452 2.372356 43.558053 -1.977579 0.315649 -0.756066 -6.547537 -1.020541 -0.395906 0.000000 0.000000 0.000000
